<svg xmlns="http://www.w3.org/2000/svg" width="24" height="24" viewBox="0 0 24 24">
    <path d="M17.843,0h-6a.469.469,0,0,0-.469.469v6a.469.469,0,0,0,.469.469h6a.469.469,0,0,0,.469-.469v-6A.469.469,0,0,0,17.843,0Zm-.469,6h-5.06V.937h5.06Z"
          transform="translate(-2.844 0)"/>
    <path d="M29.22,0h-6a.469.469,0,0,0-.469.469v6a.469.469,0,0,0,.469.469h6a.47.47,0,0,0,.469-.469v-6A.469.469,0,0,0,29.22,0Zm-.468,6h-5.06V.937h5.06Z"
          transform="translate(-5.689 0)"/>
    <path d="M6.466,11.369h-6A.469.469,0,0,0,0,11.838v6a.469.469,0,0,0,.469.469h6a.469.469,0,0,0,.469-.469v-6A.47.47,0,0,0,6.466,11.369Zm-5.529,6V12.306H6v5.063Z"
          transform="translate(0 -2.838)"/>
    <path d="M17.843,11.369h-6a.469.469,0,0,0-.469.469v6a.469.469,0,0,0,.469.469h6a.469.469,0,0,0,.469-.469v-6A.469.469,0,0,0,17.843,11.369Zm-.469,6h-5.06V12.306h5.06Z"
          transform="translate(-2.844 -2.838)"/>
    <path d="M29.22,11.369h-6a.469.469,0,0,0-.469.469v6a.469.469,0,0,0,.469.469h6a.469.469,0,0,0,.469-.469v-6A.469.469,0,0,0,29.22,11.369Zm-.468,6h-5.06V12.306h5.06Z"
          transform="translate(-5.689 -2.838)"/>
    <path d="M6.466,22.739h-6A.468.468,0,0,0,0,23.207v6a.469.469,0,0,0,.469.469h6a.469.469,0,0,0,.469-.469v-6A.469.469,0,0,0,6.466,22.739Zm-5.529,6V23.676H6v5.063Z"
          transform="translate(0 -5.677)"/>
    <path d="M17.843,22.739h-6a.469.469,0,0,0-.469.469v6a.469.469,0,0,0,.469.469h6a.469.469,0,0,0,.469-.469v-6A.469.469,0,0,0,17.843,22.739Zm-.469,6h-5.06V23.676h5.06Z"
          transform="translate(-2.844 -5.677)"/>
    <path d="M27.765,23.539a.469.469,0,1,0-.332.137A.472.472,0,0,0,27.765,23.539Z" transform="translate(-6.741 -5.676)"
         />
    <path d="M29.22,22.739H28.5a.469.469,0,0,0,0,.938h.246V28.74h-5.06V23.677h.628a.469.469,0,0,0,0-.938h-1.1a.469.469,0,0,0-.469.469v6a.469.469,0,0,0,.469.469h6a.469.469,0,0,0,.469-.469v-6A.467.467,0,0,0,29.22,22.739Z"
          transform="translate(-5.688 -5.677)"/>
    <path d="M3.922,8.133a.468.468,0,1,0,.663,0A.477.477,0,0,0,4.254,8,.472.472,0,0,0,3.922,8.133Z"
          transform="translate(-0.946 -1.996)"/>
    <path d="M.469,6.937h.715a.469.469,0,0,0,0-.938H.937V.937H6V6H5.369a.469.469,0,0,0,0,.938h1.1a.469.469,0,0,0,.469-.469v-6A.47.47,0,0,0,6.466,0h-6A.469.469,0,0,0,0,.469v6A.468.468,0,0,0,.469,6.937Z"
          transform="translate(0 0)"/>
</svg>