<svg xmlns="http://www.w3.org/2000/svg" width="24" height="24" viewBox="0 0 24 27">
    <path d="M23.451,20.8l-6.256-6.257a9.386,9.386,0,1,0-2.652,2.651l1.73,1.729h0L20.8,23.45A1.875,1.875,0,1,0,23.451,20.8Zm-9.129-4.593h0a8.446,8.446,0,1,1,1.884-1.884A8.472,8.472,0,0,1,14.322,16.206Zm.983.425a9.379,9.379,0,0,0,1.325-1.325l1.33,1.33a11.4,11.4,0,0,1-1.325,1.325Zm7.483,6.157a.938.938,0,0,1-1.326,0L17.3,18.625A12.284,12.284,0,0,0,18.625,17.3l4.163,4.162a.938.938,0,0,1,0,1.325Z"
          />
    <path d="M10,2.5A7.5,7.5,0,1,0,17.5,10,7.509,7.509,0,0,0,10,2.5Zm0,14.063A6.563,6.563,0,1,1,16.563,10,6.57,6.57,0,0,1,10,16.563Z"
          transform="translate(-0.625 -0.625)" />
</svg>